<svg width="70" height="26" viewBox="0 0 70 26" fill="none" xmlns="http://www.w3.org/2000/svg">
<g clip-path="url(#clip0_2679_1915)">
<mask id="mask0_2679_1915" style="mask-type:alpha" maskUnits="userSpaceOnUse" x="1" y="2" width="2" height="11">
<path d="M2.17324 12.242V3.51767L1.03761 2.32227V12.242H2.17324Z" fill="#FFFEFF"/>
</mask>
<g mask="url(#mask0_2679_1915)">
<path d="M1.67071 1.71582V12.6384" stroke="#0B0C0D" stroke-width="25"/>
</g>
<mask id="mask1_2679_1915" style="mask-type:alpha" maskUnits="userSpaceOnUse" x="9" y="0" width="3" height="12">
<path d="M9.93994 10.1801V0.958008H11.0756V11.3884L9.93994 10.1801Z" fill="#FFFEFF"/>
</mask>
<g mask="url(#mask1_2679_1915)">
<path d="M10.5057 11.4245L10.534 0.501953" stroke="#0B0C0D" stroke-width="24"/>
</g>
<mask id="mask2_2679_1915" style="mask-type:alpha" maskUnits="userSpaceOnUse" x="15" y="0" width="7" height="3">
<path d="M21.0998 0.957031H15.7699V2.05736H21.0998V0.957031Z" fill="#FFFEFF"/>
</mask>
<g mask="url(#mask2_2679_1915)">
<path d="M15.3479 1.51758H21.5777" stroke="#0B0C0D" stroke-width="24"/>
</g>
<mask id="mask3_2679_1915" style="mask-type:alpha" maskUnits="userSpaceOnUse" x="15" y="5" width="5" height="2">
<path d="M19.5534 5.59375H15.7699V6.6941H19.5534V5.59375Z" fill="#FFFEFF"/>
</mask>
<g mask="url(#mask3_2679_1915)">
<path d="M15.2346 6.0332H19.8786" stroke="#0B0C0D" stroke-width="24"/>
</g>
<mask id="mask4_2679_1915" style="mask-type:alpha" maskUnits="userSpaceOnUse" x="15" y="11" width="7" height="2">
<path d="M21.0998 11.1426H15.7699V12.2429H21.0998V11.1426Z" fill="#FFFEFF"/>
</mask>
<g mask="url(#mask4_2679_1915)">
<path d="M15.4045 11.5664H21.521" stroke="#0B0C0D" stroke-width="24"/>
</g>
<mask id="mask5_2679_1915" style="mask-type:alpha" maskUnits="userSpaceOnUse" x="22" y="0" width="5" height="12">
<path d="M23.9189 0.958008H22.752L25.5728 11.4449L26.2215 9.69999L23.9189 0.958008Z" fill="#FFFEFF"/>
</mask>
<g mask="url(#mask5_2679_1915)">
<path d="M26.335 12.0172L23.1634 0.219727" stroke="#0B0C0D" stroke-width="24"/>
</g>
<mask id="mask6_2679_1915" style="mask-type:alpha" maskUnits="userSpaceOnUse" x="29" y="2" width="4" height="10">
<path d="M32.9074 9.69939L30.1619 2.20117L29.5959 3.70783L32.4315 11.4697" fill="#FFFEFF"/>
</mask>
<g mask="url(#mask6_2679_1915)">
<path d="M29.3932 1.7998L33.0744 11.4523" stroke="#0B0C0D" stroke-width="24"/>
</g>
<path d="M6.43519 24.3478C3.39173 24.3478 1.19982 22.0371 1.19982 19.4438C1.19982 16.7248 3.54941 14.6504 6.26166 14.6504C7.72832 14.6504 9.27347 15.3101 10.5507 16.5518L11.4183 15.7349C9.90438 14.3044 8.31171 13.5498 6.23023 13.5498C2.50855 13.5498 0.0170975 16.2848 0.0170975 19.4754C0.0170975 22.5874 2.4771 25.385 6.4037 25.385C9.43029 25.385 11.5755 23.7054 12.0124 20.796H10.8188C10.5032 23.0748 8.57959 24.3478 6.43519 24.3478Z" fill="#0B0C0D"/>
<mask id="mask7_2679_1915" style="mask-type:alpha" maskUnits="userSpaceOnUse" x="15" y="24" width="6" height="2">
<path d="M20.1218 24.0176H15.7694V25.1175H20.1218V24.0176Z" fill="#FFFEFF"/>
</mask>
<g mask="url(#mask7_2679_1915)">
<path d="M15.3479 24.5488H20.3317" stroke="#0B0C0D" stroke-width="25"/>
</g>
<mask id="mask8_2679_1915" style="mask-type:alpha" maskUnits="userSpaceOnUse" x="21" y="19" width="13" height="7">
<path d="M27.3442 24.3004C24.7896 24.3004 22.5819 22.3043 22.5819 19.5225C22.5819 19.5065 22.5829 19.4913 22.583 19.4756H21.4003C21.4001 19.4913 21.3991 19.5065 21.3991 19.5225C21.3991 22.6815 23.8908 25.4006 27.3756 25.4006C30.7344 25.4006 33.3365 22.7919 33.3365 19.4756H32.1533C32.1453 22.2963 29.9884 24.3004 27.3442 24.3004Z" fill="#FFFEFF"/>
</mask>
<g mask="url(#mask8_2679_1915)">
<path d="M21.9741 18.9033C21.8892 21.2177 23.2201 24.802 27.1845 24.8867C31.3182 24.975 32.6214 22.0079 32.7346 18.9033" stroke="#0B0C0D" stroke-width="25"/>
</g>
<mask id="mask9_2679_1915" style="mask-type:alpha" maskUnits="userSpaceOnUse" x="36" y="13" width="7" height="13">
<path d="M40.0376 18.9568C41.0154 18.4224 41.4884 17.5737 41.4884 16.5834C41.4884 14.996 40.4003 13.833 38.0192 13.833H36.7576V14.9333H38.24C39.5488 14.9333 40.3057 15.5776 40.3057 16.5834C40.3057 17.212 40.0062 17.8095 39.5015 18.1394C39.0284 18.4538 38.3661 18.564 37.5145 18.564H36.7576V19.6639H37.5304C38.5868 19.6639 39.47 19.7268 40.1322 20.0885C40.826 20.4657 41.2362 21.1573 41.2362 21.8959C41.2362 23.0276 40.2426 23.845 39.4857 23.9077C39.1072 23.939 38.6185 24.0177 38.1296 24.0177H36.7576V25.1178H38.7289C41.1099 25.1178 42.4187 23.5618 42.4187 21.8802C42.4187 20.4657 41.6147 19.4912 40.0376 18.9568Z" fill="#FFFEFF"/>
</mask>
<g mask="url(#mask9_2679_1915)">
<path d="M36.3026 14.3886C37.3786 14.3886 40.805 14.1063 40.8616 16.4489C40.9183 18.7914 37.322 19.2995 36.3309 19.1301C37.5485 19.1301 41.966 18.7632 41.8527 22.0089C41.6545 24.6055 38.2565 24.8877 36.3592 24.4644" stroke="#0B0C0D" stroke-width="25"/>
</g>
<mask id="mask10_2679_1915" style="mask-type:alpha" maskUnits="userSpaceOnUse" x="45" y="13" width="7" height="2">
<path d="M51.2647 13.833H45.9348V14.9333H51.2647V13.833Z" fill="#FFFEFF"/>
</mask>
<g mask="url(#mask10_2679_1915)">
<path d="M45.5906 14.332H51.7071" stroke="#0B0C0D" stroke-width="25"/>
</g>
<mask id="mask11_2679_1915" style="mask-type:alpha" maskUnits="userSpaceOnUse" x="45" y="18" width="5" height="2">
<path d="M49.7185 18.4688H45.9348V19.5691H49.7185V18.4688Z" fill="#FFFEFF"/>
</mask>
<g mask="url(#mask11_2679_1915)">
<path d="M45.5906 18.96H50.178" stroke="#0B0C0D" stroke-width="25"/>
</g>
<mask id="mask12_2679_1915" style="mask-type:alpha" maskUnits="userSpaceOnUse" x="45" y="24" width="7" height="2">
<path d="M51.2647 24.0176H45.9348V25.1175H51.2647V24.0176Z" fill="#FFFEFF"/>
</mask>
<g mask="url(#mask12_2679_1915)">
<path d="M45.534 24.4922H51.5939" stroke="#0B0C0D" stroke-width="25"/>
</g>
<path d="M61.7416 1.19562C61.7416 1.65112 61.3712 2.02016 60.9142 2.02016C60.4571 2.02016 60.0867 1.65112 60.0867 1.19562C60.0867 0.740124 60.4571 0.371094 60.9142 0.371094C61.3712 0.371094 61.7416 0.740124 61.7416 1.19562Z" fill="#0B0C0D"/>
<path d="M64.0761 1.19562C64.0761 1.65112 63.7057 2.02016 63.2486 2.02016C62.7916 2.02016 62.4212 1.65112 62.4212 1.19562C62.4212 0.740124 62.7916 0.371094 63.2486 0.371094C63.7057 0.371094 64.0761 0.740124 64.0761 1.19562Z" fill="#0B0C0D"/>
<path d="M66.329 3.62148L65.1317 2.75454C64.767 2.49022 64.6849 1.97632 64.9505 1.61261C65.2155 1.24871 65.7309 1.16736 66.0962 1.43168L67.2934 2.29843C67.6582 2.56275 67.7403 3.07685 67.4747 3.44055C67.2096 3.80446 66.6943 3.88581 66.329 3.62148Z" fill="#0B0C0D"/>
<path d="M68.6538 5.70853C68.2194 5.8493 67.7528 5.61223 67.6112 5.17906C67.4701 4.7459 67.708 4.28097 68.143 4.1402C68.5773 3.99944 69.044 4.23651 69.1856 4.66967C69.3266 5.10284 69.0888 5.56776 68.6538 5.70853Z" fill="#0B0C0D"/>
<path d="M69.3753 7.92143C68.9409 8.06221 68.4743 7.82513 68.3327 7.39195C68.1917 6.95878 68.4295 6.49388 68.8645 6.3531C69.2989 6.21232 69.7655 6.4494 69.9066 6.88257C70.0481 7.31575 69.8097 7.78065 69.3753 7.92143Z" fill="#0B0C0D"/>
<path d="M67.7567 10.807L68.2143 9.40445C68.3536 8.97663 68.8186 8.7408 69.2479 8.87972C69.6772 9.01863 69.9139 9.48235 69.7746 9.90999L69.3175 11.3125C69.1777 11.7402 68.7127 11.9762 68.2834 11.8373C67.8547 11.6983 67.6174 11.2347 67.7567 10.807Z" fill="#0B0C0D"/>
<path d="M66.4836 13.6563C66.2151 13.2879 66.2967 12.7719 66.6665 12.5043C67.0358 12.2365 67.5534 12.3183 67.8218 12.6866C68.0909 13.0551 68.0087 13.571 67.6389 13.8386C67.2691 14.1064 66.752 14.0247 66.4836 13.6563Z" fill="#0B0C0D"/>
<path d="M64.5948 15.0244C64.3264 14.656 64.4085 14.1401 64.7777 13.8724C65.1476 13.6047 65.6652 13.6864 65.9337 14.0548C66.2021 14.4233 66.12 14.9392 65.7507 15.2068C65.3809 15.4746 64.8633 15.3928 64.5948 15.0244Z" fill="#0B0C0D"/>
<path d="M61.3412 14.3809H62.821C63.2724 14.3809 63.6417 14.7489 63.6417 15.1984C63.6417 15.6482 63.2724 16.0162 62.821 16.0162H61.3412C60.8898 16.0162 60.5211 15.6482 60.5211 15.1984C60.5211 14.7489 60.8898 14.3809 61.3412 14.3809Z" fill="#0B0C0D"/>
<path d="M58.2291 14.0548C58.4976 13.6864 59.0152 13.6047 59.3845 13.8724C59.7543 14.1401 59.8364 14.656 59.568 15.0244C59.299 15.3928 58.7819 15.4746 58.4121 15.2068C58.0422 14.9392 57.9607 14.4233 58.2291 14.0548Z" fill="#0B0C0D"/>
<path d="M56.3405 12.6866C56.609 12.3183 57.1265 12.2365 57.4963 12.5043C57.8655 12.7719 57.9477 13.2879 57.6792 13.6563C57.4108 14.0247 56.8931 14.1064 56.5235 13.8386C56.1539 13.571 56.072 13.0551 56.3405 12.6866Z" fill="#0B0C0D"/>
<path d="M55.9483 9.40463L56.4055 10.8072C56.5449 11.235 56.3079 11.6985 55.8788 11.8374C55.4497 11.9766 54.9845 11.7404 54.8451 11.3125L54.3879 9.90995C54.2485 9.4823 54.4855 9.01859 54.9146 8.87967C55.3437 8.74076 55.8089 8.97704 55.9483 9.40463Z" fill="#0B0C0D"/>
<path d="M55.2982 6.3531C55.7329 6.49388 55.9709 6.95878 55.8296 7.39195C55.6885 7.82513 55.2217 8.06221 54.7872 7.92143C54.3526 7.78065 54.1145 7.31575 54.2557 6.88257C54.397 6.4494 54.8636 6.21232 55.2982 6.3531Z" fill="#0B0C0D"/>
<path d="M56.0197 4.1402C56.4542 4.28097 56.6921 4.7459 56.5511 5.17906C56.4098 5.61223 55.9431 5.8493 55.5085 5.70853C55.074 5.56776 54.8359 5.10284 54.9771 4.66967C55.1184 4.23651 55.585 3.99944 56.0197 4.1402Z" fill="#0B0C0D"/>
<path d="M59.0311 2.75468L57.8338 3.62163C57.4685 3.88596 56.9532 3.8044 56.6875 3.4407C56.4225 3.07679 56.5044 2.56289 56.8693 2.29857L58.0666 1.43163C58.4313 1.1673 58.9472 1.24885 59.2123 1.61256C59.4773 1.97646 59.3958 2.49036 59.0311 2.75468Z" fill="#0B0C0D"/>
<path d="M62.8092 6.05207C62.8092 6.38567 62.5379 6.65594 62.2032 6.65594C61.8685 6.65594 61.5977 6.38567 61.5977 6.05207C61.5977 5.71851 61.8685 5.44824 62.2032 5.44824C62.5379 5.44824 62.8092 5.71851 62.8092 6.05207Z" fill="#0B0C0D"/>
<path d="M63.8382 7.90331L63.2962 6.96792C63.1314 6.6827 63.2299 6.31472 63.5159 6.14995C63.8025 5.9854 64.1718 6.08419 64.3371 6.36941L64.8785 7.3048C65.0439 7.59003 64.9448 7.95801 64.6588 8.12278C64.3728 8.28732 64.0035 8.18854 63.8382 7.90331Z" fill="#0B0C0D"/>
<path d="M63.7849 9.82724C63.495 9.6605 63.3953 9.29122 63.5629 9.00232C63.73 8.71342 64.101 8.61442 64.3904 8.78122C64.6803 8.94802 64.7794 9.31747 64.6124 9.60619C64.4447 9.89509 64.0743 9.99404 63.7849 9.82724Z" fill="#0B0C0D"/>
<path d="M61.6617 9.79004H62.7452C63.0753 9.79004 63.346 10.0595 63.346 10.3888C63.346 10.7183 63.0753 10.9879 62.7452 10.9879H61.6617C61.331 10.9879 61.0609 10.7183 61.0609 10.3888C61.0609 10.0595 61.331 9.79004 61.6617 9.79004Z" fill="#0B0C0D"/>
<path d="M60.0165 8.78119C60.3065 8.61445 60.6769 8.7134 60.8439 9.0023C61.0116 9.29102 60.9119 9.66047 60.6219 9.82722C60.3325 9.99402 59.9621 9.89506 59.7945 9.60617C59.6274 9.31721 59.7265 8.94799 60.0165 8.78119Z" fill="#0B0C0D"/>
<path d="M61.1107 6.96808L60.5687 7.90347C60.4033 8.18864 60.0341 8.28725 59.7481 8.12248C59.4615 7.95794 59.3629 7.58973 59.5283 7.30473L60.0697 6.36935C60.2351 6.08412 60.6044 5.98534 60.8904 6.1501C61.1764 6.31482 61.2755 6.68285 61.1107 6.96808Z" fill="#0B0C0D"/>
<path d="M61.5337 20.2233V20.2428C59.0684 20.5149 57.144 22.602 57.1406 25.1299C57.1406 25.1322 57.1406 25.1346 57.1406 25.1371H58.2354C58.2354 23.0233 59.9604 21.3035 62.0814 21.3035C64.2023 21.3035 65.9274 23.0233 65.9274 25.1371H67.0222C67.0222 25.1346 67.0222 25.1324 67.0222 25.1301C67.0188 22.6022 65.0943 20.5151 62.629 20.2428V20.2233C62.4489 20.2036 62.2666 20.1924 62.0814 20.1924C61.8962 20.1924 61.7138 20.2036 61.5337 20.2233Z" fill="#0B0C0D"/>
<path d="M62.2031 13.1421C64.9278 13.1421 67.1445 10.9324 67.1445 8.21683C67.1445 5.50147 64.9278 3.29199 62.2031 3.29199C59.479 3.29199 57.2624 5.50147 57.2624 8.21683C57.2624 10.9324 59.479 13.1421 62.2031 13.1421ZM62.2031 4.38351C64.3241 4.38351 66.0498 6.10328 66.0498 8.21683C66.0498 10.3306 64.3241 12.0504 62.2031 12.0504C60.0828 12.0504 58.3571 10.3306 58.3571 8.21683C58.3571 6.10328 60.0828 4.38351 62.2031 4.38351Z" fill="#0B0C0D"/>
<path d="M62.6285 18.4974V18.4868C65.0184 18.3628 67.2714 17.4254 69.0582 15.7925L68.318 14.988C66.4989 16.6508 64.1389 17.5077 61.6725 17.4012C59.2061 17.2944 56.9299 16.2371 55.2614 14.4235C53.5933 12.6102 52.7336 10.2578 52.8404 7.79984C52.9476 5.34201 54.0083 3.07271 55.8278 1.40992L55.0879 0.605469C53.0528 2.46517 51.8662 5.00331 51.7464 7.75248C51.6267 10.5017 52.5884 13.1329 54.4543 15.1612C55.4906 16.2877 56.7362 17.1532 58.1125 17.7208C59.1862 18.1638 60.3399 18.4237 61.5337 18.4855V18.4988C61.7116 18.5081 61.8911 18.5128 62.0718 18.5128C62.2587 18.5128 62.4438 18.5072 62.6285 18.4974Z" fill="#0B0C0D"/>
<path d="M62.0718 18.5124C61.8911 18.5124 61.7116 18.5077 61.5337 18.4987V20.2236C61.7138 20.2037 61.8962 20.1928 62.0814 20.1928C62.266 20.1928 62.4489 20.2039 62.6285 20.2236V18.4971C62.4438 18.5069 62.2587 18.5124 62.0718 18.5124Z" fill="#0B0C0D"/>
<path d="M15.7699 6.6937V5.59358V2.05716V0.957031H14.6342V12.2419H15.7699V11.1417V6.6937Z" fill="#0B0C0D"/>
<path d="M33.3278 12.2429L36.4081 0.958008H35.2568L34.7196 2.95704L32.4315 11.4706L32.7136 12.2429H33.3278Z" fill="#0B0C0D"/>
<path d="M30.1618 2.20121L29.7063 0.957031H29.4697L27.5826 6.03575L26.2213 9.69923L25.5729 11.4444L25.7875 12.2419H26.3898L29.5959 3.70765L30.1618 2.20121Z" fill="#0B0C0D"/>
<path d="M7.20757 19.6953V20.7955H10.8188L12.0124 20.7956C12.0649 20.4461 12.0943 20.0797 12.0961 19.6953H7.20757Z" fill="#0B0C0D"/>
<path d="M15.7699 13.833H14.6342V25.1178H15.7699V24.0177V13.833Z" fill="#0B0C0D"/>
<path d="M36.7578 19.6639V18.5638V14.9331V13.833H35.6224V25.1178H36.7578V24.0177V19.6639Z" fill="#0B0C0D"/>
<path d="M45.9348 14.9331V13.833H44.7991V25.1178H45.9348V24.0175V19.5697V18.4694V14.9331Z" fill="#0B0C0D"/>
<path d="M27.281 13.5498C24.0322 13.5498 21.4248 16.1346 21.4003 19.4752H22.583C22.6077 16.609 24.8663 14.6499 27.3442 14.6499C29.8514 14.6499 32.1537 16.599 32.1537 19.4594C32.1537 19.4647 32.1533 19.4699 32.1533 19.4752H33.3365C33.3365 16.1119 30.7188 13.5498 27.281 13.5498Z" fill="#0B0C0D"/>
<path d="M1.03761 0.958008V2.32287L2.17304 3.51848V3.51602L8.43301 10.1106L8.43426 10.1119L10.4588 12.2445H11.0754V11.3886L1.27423 0.958008H1.03761Z" fill="#0B0C0D"/>
<path d="M2.14468 1.91699V4.15289H1.04576V1.91699H2.14468Z" fill="#0B0C0D"/>
<path d="M11.0504 9.29785V11.5337H9.95149V9.29785H11.0504Z" fill="#0B0C0D"/>
<path d="M16.4365 2.04451H15.3259V0.949219H16.4365V2.04451Z" fill="#0B0C0D"/>
<path d="M16.3232 6.68707H15.3259V5.5918H16.3232V6.68707Z" fill="#0B0C0D"/>
<path d="M16.3232 12.2329H15.3259V11.1377H16.3232V12.2329Z" fill="#0B0C0D"/>
<path d="M16.3232 25.0822H15.3259V24.0293H16.3232V25.0822Z" fill="#0B0C0D"/>
<path d="M11.9766 20.9258H10.8518V20.6631H11.9766V20.9258Z" fill="#0B0C0D"/>
<path d="M46.3678 14.9146H45.3704V13.8193H46.3678V14.9146Z" fill="#0B0C0D"/>
<path d="M46.3537 19.5572H45.3563V18.4619H46.3537V19.5572Z" fill="#0B0C0D"/>
<path d="M46.3537 25.1031H45.3563V24.0078H46.3537V25.1031Z" fill="#0B0C0D"/>
<path d="M22.5601 19.6279H21.4353V19.3652H22.5601V19.6279Z" fill="#0B0C0D"/>
<path d="M33.3065 19.6279H32.1817V19.3652H33.3065V19.6279Z" fill="#0B0C0D"/>
<path d="M26.0607 9.04785L26.6034 11.2173L25.5804 11.4716L25.0377 9.30209L26.0607 9.04785Z" fill="#0B0C0D"/>
<path d="M32.696 9.12988L33.4633 11.231L32.4806 11.5874L31.7134 9.4864L32.696 9.12988Z" fill="#0B0C0D"/>
<path d="M30.0342 1.90527L30.8015 4.00633L29.8188 4.3628L29.0516 2.26174L30.0342 1.90527Z" fill="#0B0C0D"/>
<path d="M10.9995 0.876953V11.4478H9.8064V0.876953H10.9995Z" fill="#0B0C0D"/>
<path d="M1.00701 12.2217V1.97363H2.20007V12.2217H1.00701Z" fill="#0B0C0D"/>
<path d="M20.5118 25.1256H14.6568V23.9365H20.5118V25.1256Z" fill="#0B0C0D"/>
<path d="M51.3481 14.9645H44.8452V13.7754H51.3481V14.9645Z" fill="#0B0C0D"/>
<path d="M49.9395 19.5934H44.8402V18.4043H49.9395V19.5934Z" fill="#0B0C0D"/>
<path d="M19.7534 6.66666H14.6541V5.47754H19.7534V6.66666Z" fill="#0B0C0D"/>
<path d="M51.3481 25.1813H44.8452V23.9922H51.3481V25.1813Z" fill="#0B0C0D"/>
<path d="M21.162 2.09439H14.6591V0.905273H21.162V2.09439Z" fill="#0B0C0D"/>
<path d="M21.162 12.1989H14.6591V11.0098H21.162V12.1989Z" fill="#0B0C0D"/>
</g>
<defs>
<clipPath id="clip0_2679_1915">
<rect width="70" height="25.1754" fill="white" transform="translate(0 0.298828)"/>
</clipPath>
</defs>
</svg>
