<svg width="108" height="25" viewBox="0 0 108 25" fill="none" xmlns="http://www.w3.org/2000/svg">
<g clip-path="url(#clip0_2584_1201)">
<path d="M23.1341 0.470012C22.4318 0.16673 21.6868 0.0117188 20.9172 0.0117188C20.1633 0.0117188 19.4318 0.15999 18.7429 0.452039C18.0787 0.732856 17.4819 1.13723 16.968 1.64944C16.4789 2.13919 16.0884 2.70756 15.8102 3.33883L15.8057 3.32536L15.8012 3.33883C15.2425 2.07628 14.226 1.04063 12.9111 0.470012C12.2088 0.16673 11.4638 0.0117188 10.6942 0.0117188C9.94027 0.0117188 9.20877 0.15999 8.51991 0.452039C7.85573 0.732856 7.25886 1.13723 6.74502 1.64944C6.25586 2.13919 5.86543 2.70756 5.58719 3.33883C5.58719 3.33883 0.543012 14.9826 0.471209 15.1533C0.159314 15.8632 0 16.6181 0 17.3999C0 18.5119 0.325359 19.5857 0.942418 20.5068C1.54153 21.4032 2.38073 22.1041 3.36802 22.5309C4.07035 22.8342 4.81531 22.9892 5.58495 22.9892C6.33888 22.9892 7.07038 22.841 7.75924 22.5489C8.42342 22.2681 9.02029 21.8637 9.53413 21.3515C10.0233 20.8618 10.4137 20.2934 10.692 19.6621L10.6964 19.6756L10.7009 19.6621C10.8311 19.9542 10.9859 20.2372 11.1654 20.5068C11.7645 21.4032 12.6037 22.1041 13.591 22.5309C14.2933 22.8342 15.0383 22.9892 15.8079 22.9892C16.5619 22.9892 17.2934 22.841 17.9822 22.5489C18.6464 22.2681 19.2433 21.8637 19.7571 21.3515C20.2463 20.8618 20.6367 20.2934 20.9149 19.6621C20.9149 19.6621 25.9569 8.01836 26.0309 7.84762C26.3451 7.13772 26.5021 6.38064 26.5021 5.59885C26.4999 3.37029 25.1783 1.35515 23.1341 0.470012ZM6.90658 5.60109C6.90658 3.50732 8.60293 1.80895 10.6942 1.80895C11.2282 1.80895 11.7353 1.91903 12.1976 2.11897C13.5416 2.70082 14.4841 4.042 14.4841 5.60109C14.4841 6.14475 14.3696 6.66146 14.1632 7.12649C14.1071 7.25679 10.6964 15.1488 10.6942 15.1488V15.1466C10.6403 15.0208 7.38901 7.49717 7.23194 7.13772V7.13547L7.22521 7.11975C7.01877 6.65696 6.90658 6.14251 6.90658 5.60109ZM9.37257 17.3999C9.37257 19.4936 7.67622 21.192 5.58495 21.192C5.05091 21.192 4.5438 21.0819 4.08157 20.882C2.73526 20.3001 1.79508 18.9612 1.79508 17.3999C1.79508 16.8562 1.90952 16.3395 2.11595 15.8745C2.17205 15.7442 5.58271 7.85212 5.58271 7.85212C5.58271 7.85212 8.8879 15.5015 9.04497 15.8632V15.8655L9.0517 15.8812C9.25814 16.3462 9.37257 16.8607 9.37257 17.3999ZM19.5956 17.3999C19.5956 19.4936 17.8992 21.192 15.8079 21.192C15.2739 21.192 14.7668 21.0819 14.3046 20.882C12.9605 20.3001 12.0181 18.959 12.0181 17.3999C12.0181 16.8562 12.1325 16.3395 12.3389 15.8745C12.395 15.7442 15.8079 7.85212 15.8079 7.85212C15.8079 7.85212 19.1131 15.5015 19.2702 15.8632V15.8655L19.2769 15.8812C19.4811 16.3462 19.5956 16.8607 19.5956 17.3999ZM24.3862 7.12873C24.3301 7.25903 20.9194 15.1511 20.9172 15.1511V15.1488C20.8633 15.023 17.6142 7.5084 17.4549 7.13997C17.4549 7.13997 17.4549 7.13772 17.4527 7.13772L17.446 7.122C17.2418 6.65696 17.1273 6.14251 17.1273 5.60334C17.1296 3.50732 18.8259 1.80895 20.9172 1.80895C21.4512 1.80895 21.9583 1.91903 22.4206 2.11897C23.7646 2.70082 24.7071 4.042 24.7071 5.60109C24.7048 6.14475 24.5904 6.66146 24.3862 7.12873Z" fill="#0B0C0D"/>
<path fill-rule="evenodd" clip-rule="evenodd" d="M90.9664 4.29388C90.9664 3.31439 91.6553 2.62695 92.6314 2.62695C93.5873 2.62695 94.2761 3.31664 94.2761 4.29388C94.2761 5.2509 93.5873 5.91812 92.6314 5.91812C91.6553 5.91812 90.9664 5.2509 90.9664 4.29388ZM91.2985 7.85239H93.9418V19.395H91.2985V7.85239ZM33.6826 19.3951H36.3259V8.05241L43.9662 19.3951H46.7216V3.60427H44.0784V14.9695L36.4156 3.60427H33.6826V19.3951ZM54.1035 17.3912C52.2613 17.3912 51.0833 16.214 50.8836 14.3899V14.3854H59.6571C59.6571 14.3854 59.6795 13.9855 59.6795 13.5631C59.6795 10.1821 57.4379 7.58063 54.016 7.58063C50.5964 7.58063 48.2852 10.2495 48.2852 13.6081C48.2852 17.0565 50.5515 19.658 54.0385 19.658C56.7244 19.658 58.7685 18.036 59.4574 15.7445H56.7917C56.3698 16.7689 55.3242 17.3912 54.1035 17.3912ZM57.0587 12.4331H50.9285C51.1955 10.8538 52.3062 9.7418 54.016 9.7418C55.7259 9.7418 56.8366 10.8313 57.0587 12.4331ZM69.0041 11.4783H68.9817L66.3608 19.3951H63.85L59.8312 7.85239H62.5642L65.1402 16.1264L67.7834 7.85239H70.227L72.8478 16.1466L75.4462 7.85239H78.1343L74.1133 19.3951H71.6025L69.0041 11.4783ZM89.266 17.1036H82.8239L89.1762 10.0091V7.85239H79.6017V10.1438H85.8441L79.5142 17.2384V19.3951H89.266V17.1036ZM95.9321 24.0206H98.5753V17.8853C99.2193 18.8872 100.485 19.6645 102.262 19.6645C105.684 19.6645 107.616 16.9283 107.616 13.6371C107.616 10.3235 105.684 7.5872 102.262 7.5872C100.485 7.5872 99.1318 8.31957 98.3756 9.499V7.85229H95.9321V24.0206ZM104.97 13.6348C104.97 15.7017 103.727 17.3259 101.728 17.3259C99.7085 17.3259 98.4856 15.7017 98.4856 13.6348C98.4856 11.5006 99.7062 9.87642 101.728 9.87642C103.727 9.87642 104.97 11.5006 104.97 13.6348Z" fill="#0B0C0D"/>
<path opacity="0.1" d="M6.90935 5.60073C6.90935 3.50696 8.6057 1.80859 10.697 1.80859C11.231 1.80859 11.7381 1.91867 12.2003 2.11861C13.5444 2.70046 14.4868 4.04164 14.4868 5.60073C14.4868 6.14439 14.3724 6.6611 14.166 7.12613C14.1099 7.25643 10.6992 15.1485 10.697 15.1485V15.1462C10.6431 15.0204 7.39177 7.49681 7.2347 7.13736V7.13511L7.22797 7.11939C7.02154 6.6566 6.90935 6.14215 6.90935 5.60073ZM9.37534 17.3995C9.37534 19.4933 7.67899 21.1917 5.58772 21.1917C5.05368 21.1917 4.54657 21.0816 4.08434 20.8816C2.73803 20.2998 1.79785 18.9609 1.79785 17.3995C1.79785 16.8559 1.91229 16.3392 2.11872 15.8741C2.17482 15.7438 5.58547 7.85176 5.58547 7.85176C5.58547 7.85176 8.89067 15.5012 9.04774 15.8629V15.8651L9.05447 15.8809C9.2609 16.3459 9.37534 16.8603 9.37534 17.3995ZM19.5983 17.3995C19.5983 19.4933 17.902 21.1917 15.8107 21.1917C15.2767 21.1917 14.7696 21.0816 14.3073 20.8816C12.9633 20.2998 12.0208 18.9586 12.0208 17.3995C12.0208 16.8559 12.1353 16.3392 12.3417 15.8741C12.3978 15.7438 15.8107 7.85176 15.8107 7.85176C15.8107 7.85176 19.1159 15.5012 19.273 15.8629V15.8651L19.2797 15.8809C19.4839 16.3459 19.5983 16.8603 19.5983 17.3995ZM24.389 7.12837C24.3329 7.25867 20.9222 15.1507 20.92 15.1507V15.1485C20.8661 15.0227 17.617 7.50804 17.4577 7.13961C17.4577 7.13961 17.4577 7.13736 17.4554 7.13736L17.4487 7.12164C17.2445 6.6566 17.1301 6.14215 17.1301 5.60298C17.1323 3.50696 18.8287 1.80859 20.92 1.80859C21.454 1.80859 21.9611 1.91867 22.4233 2.11861C23.7674 2.70046 24.7098 4.04164 24.7098 5.60073C24.7076 6.14439 24.5931 6.6611 24.389 7.12837Z" fill="#0B0C0D"/>
</g>
<defs>
<clipPath id="clip0_2584_1201">
<rect width="108" height="24" fill="white" transform="translate(0 0.0117188)"/>
</clipPath>
</defs>
</svg>
