<svg width="130" height="29" viewBox="0 0 130 29" fill="none" xmlns="http://www.w3.org/2000/svg">
<g clip-path="url(#clip0_1431_1950)">
<path d="M127.788 6.66521C128.215 6.63263 128.694 6.6349 129.086 6.82617C129.447 7.00302 129.785 7.32267 129.902 7.71502C130.018 8.10234 129.97 8.57526 129.774 8.92643C129.485 9.44587 129.079 9.61899 128.54 9.76341C128.104 9.78092 127.696 9.77703 127.287 9.59038C126.94 9.43209 126.624 9.10328 126.499 8.74505C126.356 8.33795 126.359 7.87906 126.577 7.49708C126.853 7.01112 127.274 6.81555 127.788 6.66521Z" fill="#0B0C0D"/>
<path d="M108.008 17.4658C108.364 17.4394 108.755 17.4504 109.093 17.5757C109.525 17.7359 109.882 18.0979 110.053 18.5213C110.224 18.9446 110.208 19.5173 110.021 19.9337C109.775 20.4813 109.361 20.7116 108.831 20.9211C108.42 20.9435 108.045 20.9592 107.658 20.795C107.209 20.6043 106.875 20.2599 106.709 19.8002C106.564 19.3971 106.571 18.8373 106.756 18.4472C107.017 17.8947 107.456 17.6668 108.008 17.4658Z" fill="#0B0C0D"/>
<path d="M41.1701 11.2301L42.0298 11.1729L42.0283 12.7599C42.0283 12.7808 42.0434 12.8081 42.0283 12.8226C42.0194 12.8311 40.8263 12.8988 40.6535 12.9413C40.156 13.0635 39.7199 13.3222 39.3638 13.6872C38.3309 14.7459 38.5529 16.4346 38.5517 17.7911L38.5554 20.7941C38.0148 20.7964 37.3643 20.871 36.8395 20.7555L36.8 20.5045L36.7991 11.2676L38.4819 11.2686L38.484 12.8207C39.198 11.8297 39.982 11.4389 41.1701 11.2301Z" fill="#0B0C0D"/>
<path d="M93.0627 11.2288L93.9283 11.1738L93.9291 12.8228L93.8594 12.8222C92.8844 12.8221 91.9685 12.9544 91.261 13.6835C90.2293 14.746 90.453 16.4594 90.4522 17.8158L90.4554 20.7936C89.9164 20.7959 89.2591 20.873 88.7372 20.7535L88.6991 20.5043V11.2691L90.3841 11.2705L90.3865 12.8001C91.1232 11.8317 91.8664 11.4457 93.0627 11.2288Z" fill="#0B0C0D"/>
<path d="M126.749 11.1279L129.617 11.1286L129.614 20.7935L126.752 20.793L126.749 11.1279Z" fill="#0B0C0D"/>
<path d="M57.9674 11.2336C59.3819 11.0946 61.2354 11.2167 62.4267 12.0551L61.6945 13.4003C60.8325 12.8866 59.9356 12.656 58.9329 12.6543C58.2481 12.6531 57.3606 12.7205 56.8608 13.2631C56.6642 13.4766 56.5641 13.7327 56.5829 14.0253C56.664 15.2916 59.0516 15.3279 59.9805 15.5311C60.6814 15.6844 61.4806 15.8912 62.0345 16.3724C62.4783 16.7579 62.6983 17.2521 62.7377 17.8342C62.7844 18.5238 62.624 19.1307 62.1637 19.6548C61.3257 20.609 60.0499 20.828 58.8485 20.8914C57.2754 20.8751 55.8772 20.6658 54.5237 19.7965L55.2645 18.4413C56.5891 19.1852 57.9995 19.5512 59.5219 19.3607C60.041 19.2957 60.4977 19.1349 60.8232 18.6992C60.9832 18.4852 61.0223 18.1617 60.9676 17.9012C60.7562 16.8929 58.2471 16.783 57.393 16.5952C56.8468 16.4751 56.2411 16.2983 55.7796 15.9752C55.2553 15.608 54.9812 15.1464 54.8773 14.5152C54.7666 13.8429 54.9046 13.1116 55.3096 12.5567C55.9309 11.7059 56.9778 11.3957 57.9674 11.2336Z" fill="#0B0C0D"/>
<path fill-rule="evenodd" clip-rule="evenodd" d="M81.8838 11.2002L80.5919 11.2334C79.2376 11.5002 78.0824 12.1286 77.3104 13.3034C76.5506 14.4594 76.413 15.9451 76.702 17.2732C76.9611 18.4648 77.7226 19.4628 78.7477 20.1051C80.0107 20.8964 81.7711 21.0862 83.2122 20.749C84.175 20.5239 84.9433 20.0669 85.6249 19.3596L84.6678 18.2568C84.6406 18.2798 84.6135 18.3027 84.5864 18.3256C84.3069 18.5622 84.0312 18.7954 83.7098 18.9763C82.61 19.4384 81.3935 19.5713 80.2654 19.1013C79.5175 18.7898 78.838 18.2198 78.5373 17.4502L78.2809 16.6136L86.2223 16.6043C86.3139 15.2183 86.0391 13.8064 85.0925 12.7369C84.2593 11.7964 83.1368 11.2637 81.8838 11.2002ZM83.1084 13.0591C82.4154 12.6634 81.656 12.5748 80.869 12.6689C80.0322 12.8654 79.2929 13.2164 78.8154 13.9672C78.5379 14.4035 78.4066 14.8644 78.2702 15.3576L82.0888 15.3733C82.3444 15.3725 82.6081 15.3793 82.8745 15.3862C83.4596 15.4014 84.0577 15.4169 84.6118 15.3525C84.3508 14.3862 84.0226 13.5807 83.1084 13.0591Z" fill="#0B0C0D"/>
<path fill-rule="evenodd" clip-rule="evenodd" d="M51.3282 12.0882C50.1333 11.2699 48.8174 11.0986 47.4018 11.2323C46.0319 11.4852 44.8468 12.092 44.0367 13.2589C43.2548 14.385 43.0529 15.8285 43.3203 17.1597C43.5652 18.3791 44.3615 19.4438 45.3961 20.1105C46.5417 20.8486 47.8082 20.9764 49.1332 20.8455C50.4706 20.615 51.6534 19.9946 52.4531 18.8719C53.2143 17.8032 53.4676 16.3956 53.2534 15.1081C53.0509 13.891 52.3447 12.7843 51.3282 12.0882ZM50.3838 13.3867C49.6673 12.8197 48.9728 12.7235 48.0883 12.6872C47.1177 12.794 46.3119 13.0962 45.6866 13.885C45.0672 14.6664 44.898 15.6878 45.0303 16.6608C45.1421 17.483 45.6155 18.2855 46.2853 18.7719C46.9511 19.2555 47.5951 19.3629 48.4013 19.3864C49.3711 19.3013 50.1759 19.032 50.8212 18.2579C51.4546 17.4984 51.6155 16.455 51.5081 15.4971C51.4183 14.6953 51.0214 13.8914 50.3838 13.3867Z" fill="#0B0C0D"/>
<path fill-rule="evenodd" clip-rule="evenodd" d="M103.125 12.0224C101.932 11.2499 100.674 11.1036 99.2911 11.2334C97.8858 11.5015 96.6976 12.1204 95.8855 13.3333C95.1536 14.4269 94.9429 15.8808 95.2201 17.1572C95.4957 18.4268 96.2753 19.4619 97.3622 20.1538C98.4798 20.866 99.7434 20.9704 101.029 20.8435C102.368 20.6129 103.586 19.9838 104.375 18.8438C105.174 17.6917 105.379 16.275 105.109 14.9123C104.877 13.7376 104.126 12.6705 103.125 12.0224ZM102.227 13.3454C101.543 12.8119 100.832 12.7144 99.9914 12.6878C99.0302 12.7891 98.2472 13.0752 97.6208 13.8488C96.9845 14.6345 96.8127 15.5804 96.9156 16.5718C97.0048 17.4317 97.466 18.2165 98.1443 18.7436C98.8316 19.2782 99.5343 19.3632 100.379 19.3839C101.31 19.2935 102.099 18.9983 102.715 18.2588C103.339 17.5096 103.515 16.4938 103.416 15.5458C103.326 14.6866 102.912 13.8793 102.227 13.3454Z" fill="#0B0C0D"/>
<path fill-rule="evenodd" clip-rule="evenodd" d="M27.655 8.21619L24.1474 8.21894L24.1534 20.7937L25.9889 20.7943L25.9925 16.9883C26.3593 16.9893 26.7339 16.9973 27.1122 17.0053C28.2428 17.0295 29.4057 17.0543 30.4869 16.8934C31.801 16.678 33.0341 16.1519 33.8249 15.0324C34.4881 14.0935 34.6437 12.7715 34.4371 11.6627C34.2463 10.6384 33.6721 9.73899 32.8088 9.14823C31.4186 8.19691 29.7573 8.20586 28.1442 8.21455C27.9805 8.21543 27.8173 8.21631 27.655 8.21619ZM28.346 9.77115L25.9917 9.77278L25.9886 15.4124L28.3729 15.4085C28.4412 15.4082 28.5089 15.4081 28.5762 15.408C29.7997 15.406 30.8605 15.4042 31.8869 14.5889C32.4508 13.9788 32.7262 13.3296 32.6887 12.485C32.6554 11.7348 32.4085 11.075 31.8351 10.5723C30.9218 9.77164 29.6712 9.77146 28.5206 9.77129C28.4621 9.77128 28.4039 9.77127 28.346 9.77115Z" fill="#0B0C0D"/>
<path fill-rule="evenodd" clip-rule="evenodd" d="M119.876 8.2207L116.933 8.22095L111.219 20.7929L114.262 20.7952L115.07 18.8946C115.093 18.8402 115.117 18.7765 115.142 18.7088C115.222 18.4922 115.318 18.2346 115.455 18.1103L119.968 18.1112H121.375L122.494 20.7946L125.625 20.7937L119.876 8.2207ZM120.134 15.1768C119.596 13.8518 118.55 11.2762 118.363 11.1761L116.365 15.8792L118.448 15.8779L120.42 15.8757C120.37 15.7581 120.268 15.5061 120.134 15.1768Z" fill="#0B0C0D"/>
<path fill-rule="evenodd" clip-rule="evenodd" d="M69.7222 11.1955L69.3419 11.231C68.1862 11.4387 67.4634 11.8719 66.6511 12.6994L66.6501 11.2704L64.9481 11.2693L64.9473 24.2828L66.7196 24.2844L66.721 20.2959L66.7388 19.436C67.8053 20.4597 68.7714 20.9178 70.2757 20.8915C71.5704 20.8689 72.8299 20.4075 73.7293 19.4515C74.7365 18.3811 75.0776 17.0847 75.0148 15.6435C74.9619 14.4335 74.4111 13.2276 73.5102 12.4159C72.4568 11.4667 71.1214 11.1034 69.7222 11.1955ZM72.0644 13.3877C71.3988 12.8443 70.6565 12.724 69.8249 12.6852C68.8437 12.7907 68.0261 13.0689 67.388 13.8667C66.8002 14.6016 66.6145 15.5895 66.7234 16.5098C66.8342 17.4467 67.2172 18.1989 67.9751 18.7784C68.6316 19.2804 69.3351 19.361 70.1326 19.385C71.078 19.3031 71.8718 19.0082 72.4937 18.2613C73.1034 17.5292 73.3192 16.5602 73.2243 15.6243C73.135 14.7441 72.7568 13.9531 72.0644 13.3877Z" fill="#0B0C0D"/>
<path d="M4.37329 0.447276C4.42612 0.441935 4.53357 0.415946 4.58128 0.4262C4.76285 0.465434 5.10449 0.716361 5.2818 0.815693L7.53495 2.08927L16.6034 7.21641L12.8053 9.39443C12.6493 9.43509 12.6031 9.42904 12.4578 9.35741C11.0216 8.64713 9.62738 7.75372 8.23105 6.96L0.621765 2.63819C0.719459 2.4579 3.85099 0.746908 4.37329 0.447276Z" fill="#0B0C0D"/>
<path d="M16.7493 7.52442C16.8661 7.49643 16.8063 7.49771 16.9295 7.52442L16.9587 16.7485L8.7099 21.4685L8.71751 26.2695L4.97625 28.4234C4.87692 28.4509 4.87799 28.4723 4.78093 28.4234L4.76456 19.3694L12.8081 14.7527L12.7946 9.84243C13.011 9.55156 16.1854 7.84861 16.7493 7.52442Z" fill="#0B0C0D"/>
<path d="M0.0536208 2.78711L12.4101 9.75554L12.4286 14.4864L4.26591 19.1183L4.2919 28.5409L0.0962032 26.1809L0.0742688 16.8195C0.147325 16.6769 0.382304 16.5821 0.52094 16.5032L1.9422 15.6972L8.3318 12.0555L0.0862334 7.39188C-0.0089681 6.96999 0.057681 6.39366 0.0568977 5.95553L0.0536208 2.78711Z" fill="#0B0C0D"/>
</g>
<defs>
<clipPath id="clip0_1431_1950">
<rect width="130" height="28.1234" fill="white" transform="translate(0 0.423828)"/>
</clipPath>
</defs>
</svg>
